<svg xmlns="http://www.w3.org/2000/svg" viewBox="0 0 2200 300" preserveAspectRatio="none">
  <defs>
    <filter id="soft" x="-20%" y="-45%" width="140%" height="190%">
      <feGaussianBlur stdDeviation="20"/>
    </filter>
    <linearGradient id="farMist" x1="0" x2="1" y1="0" y2="0">
      <stop offset="0" stop-color="#8bbfe2" stop-opacity="0"/>
      <stop offset="0.18" stop-color="#9fc8e9" stop-opacity="0.18"/>
      <stop offset="0.36" stop-color="#94d6c2" stop-opacity="0.13"/>
      <stop offset="0.58" stop-color="#b7a0ef" stop-opacity="0.10"/>
      <stop offset="0.78" stop-color="#9fc8e9" stop-opacity="0.16"/>
      <stop offset="1" stop-color="#8bbfe2" stop-opacity="0"/>
    </linearGradient>
  </defs>
  <rect width="2200" height="300" fill="none"/>
  <g filter="url(#soft)">
    <path d="M-160 226 C58 188 220 218 426 182 C646 144 834 190 1052 160 C1278 126 1482 176 1694 148 C1904 120 2062 148 2360 110 L2360 330 L-160 330 Z" fill="url(#farMist)" opacity="0.66"/>
    <path d="M-110 182 C104 154 280 174 502 140 C728 106 928 150 1144 124 C1386 94 1584 136 1806 112 C2000 92 2180 102 2350 82" fill="none" stroke="#c5dfef" stroke-opacity="0.10" stroke-width="58" stroke-linecap="round"/>
    <ellipse cx="420" cy="204" rx="410" ry="68" fill="#a4ccea" opacity="0.12"/>
    <ellipse cx="1020" cy="184" rx="480" ry="76" fill="#9ee5bf" opacity="0.08"/>
    <ellipse cx="1620" cy="174" rx="520" ry="74" fill="#b69eed" opacity="0.08"/>
    <ellipse cx="2040" cy="164" rx="360" ry="62" fill="#a7d0ec" opacity="0.11"/>
  </g>
</svg>
