<svg xmlns="http://www.w3.org/2000/svg" viewBox="0 0 640 160" role="img" aria-label="Roaming forest animal silhouette">
  <defs>
    <filter id="soft" x="-20%" y="-20%" width="140%" height="140%">
      <feGaussianBlur stdDeviation="0.45"/>
    </filter>
  </defs>
  <g fill="#06110d" filter="url(#soft)">
    <ellipse cx="318" cy="86" rx="142" ry="40"/>
    <circle cx="456" cy="58" r="32"/>
    <path d="M475 33 L505 14 L497 50 Z"/>
    <path d="M438 33 L410 14 L417 50 Z"/>
    <path d="M181 84 C132 70 86 66 42 76 C95 91 130 106 193 107 Z"/>
    <rect x="220" y="108" width="25" height="45" rx="8"/>
    <rect x="292" y="111" width="24" height="42" rx="8"/>
    <rect x="370" y="108" width="26" height="45" rx="8"/>
    <rect x="438" y="100" width="23" height="53" rx="8"/>
    <circle cx="468" cy="57" r="3" fill="#10261f"/>
  </g>
</svg>
