<svg xmlns="http://www.w3.org/2000/svg" width="1400" height="900" viewBox="0 0 1400 900">
  <rect width="1400" height="900" fill="transparent"/>

  <defs>
    <radialGradient id="hazeTop" cx="50%" cy="0%" r="75%">
      <stop offset="0%" stop-color="#ffffff" stop-opacity="0.05"/>
      <stop offset="55%" stop-color="#ffffff" stop-opacity="0.02"/>
      <stop offset="100%" stop-color="#ffffff" stop-opacity="0"/>
    </radialGradient>

    <linearGradient id="moonRay" x1="0%" y1="0%" x2="100%" y2="0%">
      <stop offset="0%" stop-color="#d7e7ff" stop-opacity="0"/>
      <stop offset="42%" stop-color="#d7e7ff" stop-opacity="0.065"/>
      <stop offset="55%" stop-color="#e7f1ff" stop-opacity="0.125"/>
      <stop offset="68%" stop-color="#d7e7ff" stop-opacity="0.055"/>
      <stop offset="100%" stop-color="#d7e7ff" stop-opacity="0"/>
    </linearGradient>

    <linearGradient id="greenRay" x1="0%" y1="0%" x2="100%" y2="0%">
      <stop offset="0%" stop-color="#b5ffd8" stop-opacity="0"/>
      <stop offset="45%" stop-color="#b5ffd8" stop-opacity="0.04"/>
      <stop offset="58%" stop-color="#d6ffee" stop-opacity="0.09"/>
      <stop offset="72%" stop-color="#b5ffd8" stop-opacity="0.03"/>
      <stop offset="100%" stop-color="#b5ffd8" stop-opacity="0"/>
    </linearGradient>

    <filter id="rayBlur"><feGaussianBlur stdDeviation="9"/></filter>
  </defs>

  <rect width="1400" height="900" fill="url(#hazeTop)"/>

  <g filter="url(#rayBlur)" style="mix-blend-mode:screen">
    <g opacity="0"><polygon points="965,-40 1095,-40 820,900 610,900" fill="url(#moonRay)"/><animate attributeName="opacity" dur="38s" begin="0s" repeatCount="indefinite" values="0;0;0.42;0.24;0;0" keyTimes="0;0.18;0.32;0.48;0.62;1"/></g>
    <g opacity="0"><polygon points="1210,-50 1325,-50 1095,900 910,900" fill="url(#greenRay)"/><animate attributeName="opacity" dur="53s" begin="-11s" repeatCount="indefinite" values="0;0;0.34;0.18;0;0" keyTimes="0;0.36;0.50;0.66;0.78;1"/></g>
    <g opacity="0"><polygon points="360,-45 470,-45 245,900 70,900" fill="url(#moonRay)"/><animate attributeName="opacity" dur="47s" begin="-23s" repeatCount="indefinite" values="0;0;0.30;0.16;0;0" keyTimes="0;0.52;0.64;0.76;0.88;1"/></g>
    <g opacity="0"><polygon points="125,-55 245,-55 20,900 -130,900" fill="url(#greenRay)"/><animate attributeName="opacity" dur="44s" begin="-7s" repeatCount="indefinite" values="0;0;0.24;0.12;0;0" keyTimes="0;0.22;0.35;0.49;0.64;1"/></g>
    <g opacity="0"><polygon points="610,-50 735,-50 510,900 330,900" fill="url(#moonRay)"/><animate attributeName="opacity" dur="58s" begin="-31s" repeatCount="indefinite" values="0;0;0.28;0.14;0;0" keyTimes="0;0.10;0.23;0.39;0.52;1"/></g>
    <g opacity="0"><polygon points="790,-45 900,-45 690,900 530,900" fill="url(#greenRay)"/><animate attributeName="opacity" dur="41s" begin="-18s" repeatCount="indefinite" values="0;0;0.22;0.10;0;0" keyTimes="0;0.44;0.56;0.68;0.82;1"/></g>
    <g opacity="0"><polygon points="1060,-55 1165,-55 980,900 820,900" fill="url(#moonRay)"/><animate attributeName="opacity" dur="62s" begin="-39s" repeatCount="indefinite" values="0;0;0.26;0.13;0;0" keyTimes="0;0.27;0.38;0.52;0.66;1"/></g>
    <g opacity="0"><polygon points="1385,-55 1495,-55 1330,900 1175,900" fill="url(#moonRay)"/><animate attributeName="opacity" dur="49s" begin="-5s" repeatCount="indefinite" values="0;0;0.22;0.10;0;0" keyTimes="0;0.58;0.70;0.80;0.90;1"/></g>
  </g>

  <g fill="#ffffff" opacity="0.9">
    <circle cx="24" cy="18" r="1.0" opacity="0.30"/><circle cx="62" cy="44" r="1.1" opacity="0.38"/><circle cx="88" cy="72" r="1.0" opacity="0.22"/><circle cx="120" cy="26" r="1.25" opacity="0.44"/><circle cx="154" cy="96" r="1.0" opacity="0.20"/><circle cx="188" cy="58" r="1.15" opacity="0.34"/><circle cx="220" cy="112" r="1.0" opacity="0.18"/><circle cx="252" cy="36" r="1.3" opacity="0.46"/><circle cx="286" cy="84" r="1.0" opacity="0.20"/><circle cx="320" cy="124" r="1.2" opacity="0.32"/><circle cx="352" cy="52" r="1.05" opacity="0.26"/><circle cx="386" cy="18" r="1.35" opacity="0.48"/><circle cx="418" cy="92" r="1.0" opacity="0.18"/><circle cx="452" cy="62" r="1.2" opacity="0.34"/><circle cx="486" cy="132" r="1.0" opacity="0.18"/><circle cx="520" cy="44" r="1.35" opacity="0.50"/><circle cx="552" cy="104" r="1.0" opacity="0.20"/><circle cx="586" cy="24" r="1.25" opacity="0.40"/><circle cx="620" cy="76" r="1.0" opacity="0.18"/><circle cx="652" cy="128" r="1.15" opacity="0.30"/><circle cx="686" cy="56" r="1.0" opacity="0.18"/><circle cx="720" cy="20" r="1.35" opacity="0.48"/><circle cx="752" cy="92" r="1.0" opacity="0.18"/><circle cx="786" cy="40" r="1.2" opacity="0.34"/><circle cx="820" cy="120" r="1.0" opacity="0.18"/><circle cx="852" cy="64" r="1.35" opacity="0.46"/><circle cx="886" cy="28" r="1.2" opacity="0.34"/><circle cx="920" cy="96" r="1.0" opacity="0.18"/><circle cx="954" cy="50" r="1.25" opacity="0.42"/><circle cx="988" cy="132" r="1.0" opacity="0.18"/><circle cx="1020" cy="22" r="1.35" opacity="0.50"/><circle cx="1054" cy="76" r="1.0" opacity="0.18"/><circle cx="1088" cy="114" r="1.2" opacity="0.32"/><circle cx="1120" cy="40" r="1.0" opacity="0.18"/><circle cx="1154" cy="92" r="1.35" opacity="0.48"/><circle cx="1188" cy="28" r="1.2" opacity="0.34"/><circle cx="1220" cy="126" r="1.0" opacity="0.18"/><circle cx="1254" cy="58" r="1.25" opacity="0.42"/><circle cx="1288" cy="18" r="1.35" opacity="0.50"/><circle cx="1320" cy="86" r="1.0" opacity="0.18"/><circle cx="1354" cy="44" r="1.2" opacity="0.34"/>
    <circle cx="40" cy="180" r="1.0" opacity="0.18"/><circle cx="84" cy="214" r="1.25" opacity="0.38"/><circle cx="128" cy="168" r="1.05" opacity="0.22"/><circle cx="172" cy="242" r="1.35" opacity="0.46"/><circle cx="214" cy="196" r="1.0" opacity="0.18"/><circle cx="258" cy="276" r="1.2" opacity="0.32"/><circle cx="304" cy="164" r="1.0" opacity="0.18"/><circle cx="348" cy="236" r="1.35" opacity="0.46"/><circle cx="392" cy="188" r="1.2" opacity="0.32"/><circle cx="436" cy="268" r="1.0" opacity="0.18"/><circle cx="482" cy="176" r="1.25" opacity="0.40"/><circle cx="526" cy="248" r="1.35" opacity="0.46"/><circle cx="572" cy="204" r="1.0" opacity="0.18"/><circle cx="616" cy="282" r="1.2" opacity="0.32"/><circle cx="660" cy="168" r="1.0" opacity="0.18"/><circle cx="706" cy="236" r="1.35" opacity="0.46"/><circle cx="750" cy="192" r="1.2" opacity="0.32"/><circle cx="796" cy="270" r="1.0" opacity="0.18"/><circle cx="840" cy="178" r="1.25" opacity="0.40"/><circle cx="886" cy="248" r="1.35" opacity="0.46"/><circle cx="930" cy="204" r="1.0" opacity="0.18"/><circle cx="976" cy="282" r="1.2" opacity="0.32"/><circle cx="1020" cy="170" r="1.0" opacity="0.18"/><circle cx="1066" cy="238" r="1.35" opacity="0.46"/><circle cx="1110" cy="194" r="1.2" opacity="0.32"/><circle cx="1156" cy="272" r="1.0" opacity="0.18"/><circle cx="1200" cy="180" r="1.25" opacity="0.40"/><circle cx="1246" cy="252" r="1.35" opacity="0.46"/><circle cx="1290" cy="206" r="1.0" opacity="0.18"/><circle cx="1336" cy="286" r="1.2" opacity="0.32"/>
  </g>

  <g fill="#ffffff" opacity="0.85">
    <circle cx="78" cy="356" r="1.1" opacity="0.26"/><circle cx="210" cy="404" r="1.25" opacity="0.34"/><circle cx="344" cy="372" r="1.0" opacity="0.18"/><circle cx="482" cy="430" r="1.3" opacity="0.36"/><circle cx="612" cy="388" r="1.0" opacity="0.18"/><circle cx="748" cy="448" r="1.25" opacity="0.34"/><circle cx="886" cy="402" r="1.0" opacity="0.18"/><circle cx="1018" cy="462" r="1.3" opacity="0.34"/><circle cx="1152" cy="418" r="1.0" opacity="0.18"/><circle cx="1286" cy="476" r="1.2" opacity="0.30"/>
    <circle cx="124" cy="540" r="1.25" opacity="0.30"/><circle cx="286" cy="584" r="1.0" opacity="0.18"/><circle cx="448" cy="552" r="1.3" opacity="0.32"/><circle cx="612" cy="596" r="1.0" opacity="0.18"/><circle cx="776" cy="560" r="1.25" opacity="0.30"/><circle cx="942" cy="606" r="1.0" opacity="0.18"/><circle cx="1106" cy="570" r="1.3" opacity="0.30"/><circle cx="1270" cy="612" r="1.0" opacity="0.18"/>
  </g>

  <g fill="#ffffff" opacity="0.75">
    <circle cx="180" cy="690" r="1.1" opacity="0.18"/><circle cx="420" cy="748" r="1.2" opacity="0.20"/><circle cx="680" cy="712" r="1.0" opacity="0.14"/><circle cx="940" cy="770" r="1.25" opacity="0.20"/><circle cx="1180" cy="730" r="1.0" opacity="0.14"/>
    <circle cx="260" cy="842" r="1.1" opacity="0.16"/><circle cx="740" cy="868" r="1.2" opacity="0.18"/><circle cx="1220" cy="852" r="1.0" opacity="0.14"/>
  </g>

  <g fill="#ffffff">
    <circle cx="520" cy="118" r="2.0" opacity="0.32"/><circle cx="980" cy="210" r="2.2" opacity="0.28"/><circle cx="300" cy="86" r="2.0" opacity="0.26"/><circle cx="1188" cy="156" r="2.3" opacity="0.26"/><circle cx="760" cy="64" r="2.1" opacity="0.24"/>
  </g>
</svg>