<?xml version="1.0" encoding="UTF-8"?>
<svg xmlns="http://www.w3.org/2000/svg"
     viewBox="0 0 1400 700"
     preserveAspectRatio="none">

  <g fill="rgba(0,0,0,0.98)">
    <path d="
      M0 700
      L0 420
      L40 350
      L80 420
      L120 300
      L160 460
      L200 280
      L240 520
      L300 300
      L360 560
      L420 320
      L480 600
      L540 340
      L600 640
      L660 360
      L720 600
      L780 340
      L840 560
      L900 320
      L960 520
      L1020 300
      L1080 460
      L1140 280
      L1200 420
      L1260 350
      L1320 420
      L1400 420
      L1400 700
      Z" />

    <path d="
      M0 700
      L0 460
      L30 410
      L60 460
      L105 360
      L140 488
      L180 340
      L220 520
      L270 360
      L330 560
      L390 388
      L450 600
      L510 410
      L570 640
      L630 420
      L690 600
      L750 410
      L810 560
      L870 388
      L930 520
      L990 360
      L1050 488
      L1110 340
      L1170 460
      L1230 410
      L1290 460
      L1400 460
      L1400 700
      Z"
      opacity="0.80" />
  </g>

</svg>
