<svg xmlns="http://www.w3.org/2000/svg" viewBox="0 0 1600 760" preserveAspectRatio="none">
  <rect width="1600" height="760" fill="none"/>
  <g>
    <rect x="62" y="674" width="24" height="86" fill="#04150e"/>
    <polygon fill="#123c2a" points="74,450 -18,674 166,674"/>

    <rect x="338" y="660" width="26" height="100" fill="#04140e"/>
    <polygon fill="#14422e" points="351,410 244,660 458,660"/>

    <rect x="646" y="682" width="22" height="78" fill="#04140d"/>
    <polygon fill="#123927" points="657,482 568,682 746,682"/>

    <rect x="928" y="666" width="26" height="94" fill="#04140e"/>
    <polygon fill="#14452f" points="941,430 838,666 1044,666"/>

    <rect x="1258" y="654" width="28" height="106" fill="#03130d"/>
    <polygon fill="#154933" points="1272,392 1158,654 1386,654"/>

    <rect x="1532" y="680" width="24" height="80" fill="#04140e"/>
    <polygon fill="#123d2a" points="1544,470 1450,680 1638,680"/>
  </g>
</svg>
