<svg xmlns="http://www.w3.org/2000/svg" viewBox="0 0 1400 700" preserveAspectRatio="none">
  <rect width="1400" height="700" fill="none"/>
  <polygon fill="#1f6a49" opacity="0.82" points="0,700 0,500 48,430 96,500 154,395 212,525 280,405 348,575 420,390 492,610 566,420 640,650 716,430 792,620 868,400 944,570 1016,382 1088,540 1160,370 1232,510 1296,410 1356,492 1400,462 1400,700"/>
  <polygon fill="#123a29" opacity="0.92" points="0,700 0,545 38,485 76,545 130,440 184,560 246,460 308,604 374,448 440,634 508,472 576,662 646,480 716,640 786,452 856,594 924,430 992,560 1060,418 1128,532 1196,435 1264,522 1330,470 1400,535 1400,700"/>
</svg>
