<svg xmlns="http://www.w3.org/2000/svg" viewBox="0 0 1600 840" preserveAspectRatio="none">
  <rect width="1600" height="840" fill="none"/>
  <g>
    <rect x="118" y="632" width="38" height="208" fill="#010805"/><polygon fill="#092c1e" points="137,190 8,632 266,632"/>
    <rect x="250" y="660" width="30" height="180" fill="#010805"/><polygon fill="#0a3020" points="265,315 158,660 372,660"/>
    <rect x="392" y="598" width="46" height="242" fill="#010805"/><polygon fill="#0b3624" points="415,82 244,598 586,598"/>
    <rect x="586" y="668" width="32" height="172" fill="#010805"/><polygon fill="#092d1f" points="602,338 492,668 712,668"/>
    <rect x="720" y="626" width="42" height="214" fill="#010805"/><polygon fill="#0a3322" points="741,165 586,626 896,626"/>
    <rect x="902" y="654" width="34" height="186" fill="#010805"/><polygon fill="#0b3624" points="919,275 792,654 1046,654"/>
    <rect x="1052" y="604" width="46" height="236" fill="#010805"/><polygon fill="#092c1e" points="1075,105 906,604 1244,604"/>
    <rect x="1238" y="664" width="32" height="176" fill="#010805"/><polygon fill="#0a3121" points="1254,325 1138,664 1370,664"/>
    <rect x="1390" y="620" width="40" height="220" fill="#010805"/><polygon fill="#0b3423" points="1410,150 1264,620 1556,620"/>
  </g>
</svg>
