<svg xmlns="http://www.w3.org/2000/svg" viewBox="0 0 1400 520" preserveAspectRatio="none">
  <rect width="1400" height="520" fill="none"/>

  <g>
    <rect x="38" y="350" width="18" height="170" fill="#020806"/>
    <polygon fill="#082015" points="47,120 -16,338 110,338"/>
    <polygon fill="#04130d" points="47,220 0,424 94,424"/>

    <rect x="166" y="328" width="20" height="192" fill="#020806"/>
    <polygon fill="#092518" points="176,82 106,322 246,322"/>
    <polygon fill="#04140d" points="176,196 124,430 228,430"/>

    <rect x="332" y="352" width="18" height="168" fill="#020806"/>
    <polygon fill="#081f15" points="341,138 278,344 404,344"/>
    <polygon fill="#04130d" points="341,234 294,430 388,430"/>

    <rect x="492" y="324" width="20" height="196" fill="#020806"/>
    <polygon fill="#092619" points="502,78 430,320 574,320"/>
    <polygon fill="#04140d" points="502,198 448,438 556,438"/>

    <rect x="672" y="350" width="18" height="170" fill="#020806"/>
    <polygon fill="#082116" points="681,126 616,342 746,342"/>
    <polygon fill="#04130d" points="681,230 634,430 728,430"/>

    <rect x="852" y="330" width="20" height="190" fill="#020806"/>
    <polygon fill="#092518" points="862,86 790,326 934,326"/>
    <polygon fill="#04140d" points="862,198 808,434 916,434"/>

    <rect x="1038" y="352" width="18" height="168" fill="#020806"/>
    <polygon fill="#081f15" points="1047,138 984,344 1110,344"/>
    <polygon fill="#04130d" points="1047,234 1000,430 1094,430"/>

    <rect x="1208" y="326" width="20" height="194" fill="#020806"/>
    <polygon fill="#092619" points="1218,76 1146,320 1290,320"/>
    <polygon fill="#04140d" points="1218,194 1164,436 1272,436"/>

    <rect x="1364" y="350" width="18" height="170" fill="#020806"/>
    <polygon fill="#082015" points="1373,120 1310,338 1436,338"/>
    <polygon fill="#04130d" points="1373,220 1326,424 1420,424"/>
  </g>

  <g>
    <rect x="94" y="384" width="16" height="136" fill="#010604"/>
    <polygon fill="#04140d" points="102,200 44,382 160,382"/>
    <polygon fill="#020b07" points="102,282 60,446 144,446"/>

    <rect x="256" y="374" width="18" height="146" fill="#010604"/>
    <polygon fill="#04160e" points="265,176 200,370 330,370"/>
    <polygon fill="#020c07" points="265,266 218,450 312,450"/>

    <rect x="426" y="390" width="16" height="130" fill="#010604"/>
    <polygon fill="#04140d" points="434,218 376,386 492,386"/>
    <polygon fill="#020b07" points="434,294 392,452 476,452"/>

    <rect x="600" y="376" width="18" height="144" fill="#010604"/>
    <polygon fill="#04160e" points="609,180 544,372 674,372"/>
    <polygon fill="#020c07" points="609,268 562,452 656,452"/>

    <rect x="772" y="390" width="16" height="130" fill="#010604"/>
    <polygon fill="#04140d" points="780,218 722,386 838,386"/>
    <polygon fill="#020b07" points="780,294 738,452 822,452"/>

    <rect x="952" y="374" width="18" height="146" fill="#010604"/>
    <polygon fill="#04160e" points="961,176 896,370 1026,370"/>
    <polygon fill="#020c07" points="961,266 914,450 1008,450"/>

    <rect x="1120" y="390" width="16" height="130" fill="#010604"/>
    <polygon fill="#04140d" points="1128,218 1070,386 1186,386"/>
    <polygon fill="#020b07" points="1128,294 1086,452 1170,452"/>

    <rect x="1300" y="376" width="18" height="144" fill="#010604"/>
    <polygon fill="#04160e" points="1309,180 1244,372 1374,372"/>
    <polygon fill="#020c07" points="1309,268 1262,452 1356,452"/>
  </g>
</svg>
