<svg xmlns="http://www.w3.org/2000/svg" viewBox="0 0 1600 840" preserveAspectRatio="none">
  <rect width="1600" height="840" fill="none"/>
  <g>
    <rect x="118" y="632" width="38" height="208" fill="#010805"/><polygon fill="#092c1e" points="137,190 8,632 266,632"/>
    <rect x="250" y="660" width="30" height="180" fill="#010805"/><polygon fill="#0a3020" points="265,315 158,660 372,660"/>
    <rect x="392" y="598" width="46" height="242" fill="#010805"/><polygon fill="#0b3624" points="415,82 244,598 586,598"/>
    <rect x="586" y="668" width="32" height="172" fill="#010805"/><polygon fill="#092d1f" points="602,338 492,668 712,668"/>
    <rect x="720" y="626" width="42" height="214" fill="#010805"/><polygon fill="#0a3322" points="741,165 586,626 896,626"/>
    <rect x="902" y="654" width="34" height="186" fill="#010805"/><polygon fill="#0b3624" points="919,275 792,654 1046,654"/>
    <rect x="1052" y="604" width="46" height="236" fill="#010805"/><polygon fill="#092c1e" points="1075,105 906,604 1244,604"/>
    <rect x="1238" y="664" width="32" height="176" fill="#010805"/><polygon fill="#0a3121" points="1254,325 1138,664 1370,664"/>
    <rect x="1390" y="620" width="40" height="220" fill="#010805"/><polygon fill="#0b3423" points="1410,150 1264,620 1556,620"/>
  </g>
  <g opacity="0.98">
    <path d="M146 724c20-31 50-43 84-38 30 4 49 22 62 48-45-9-96-7-146-10z" fill="#e47725"/>
    <path d="M155 737c39-12 87-12 129 0" stroke="#ffc15d" stroke-width="7" fill="none" opacity="0.78"/>
    <path d="M1068 718c18-27 46-38 78-34 27 4 45 20 57 43-40-8-88-7-135-9z" fill="#d96d22"/>
    <path d="M1076 730c36-10 78-10 118 0" stroke="#ffc05a" stroke-width="6" fill="none" opacity="0.76"/>
  </g>
  <g opacity="0.9">
    <ellipse cx="430" cy="724" rx="54" ry="17" fill="#e2dcc5"/><ellipse cx="434" cy="721" rx="43" ry="11" fill="#766f5e" opacity="0.4"/>
    <ellipse cx="478" cy="742" rx="43" ry="13" fill="#d2cbb4"/><ellipse cx="482" cy="740" rx="34" ry="9" fill="#766f5e" opacity="0.36"/>
    <ellipse cx="1280" cy="721" rx="49" ry="16" fill="#e0d8c0"/><ellipse cx="1283" cy="719" rx="39" ry="10" fill="#766f5e" opacity="0.36"/>
  </g>
  <g opacity="0.96">
    <path d="M645 748c-14-40 3-76 27-81 23 5 38 43 18 81z" fill="#c49a5d"/><path d="M656 684c7-5 22-5 29 1" stroke="#f0d184" stroke-width="4"/><path d="M651 702c11-5 29-3 39 2" stroke="#f0d184" stroke-width="4"/><path d="M650 722c13-6 32-3 45 3" stroke="#f0d184" stroke-width="4"/>
    <path d="M985 750c-13-37 1-70 24-76 21 6 35 41 17 76z" fill="#c69c60"/><path d="M994 690c7-5 20-4 27 1" stroke="#f0d184" stroke-width="4"/><path d="M990 709c12-5 28-3 38 3" stroke="#f0d184" stroke-width="4"/>
  </g>
  <g opacity="0.95">
    <rect x="814" y="734" width="10" height="34" rx="5" fill="#e6d1aa"/><path d="M795 736c9-24 42-25 57 0-18 11-39 12-57 0z" fill="#6f86c7"/><circle cx="811" cy="730" r="3" fill="#e9f0ff" opacity="0.6"/>
    <rect x="858" y="742" width="9" height="28" rx="4" fill="#e6d1aa"/><path d="M842 744c9-19 34-20 46 0-15 9-31 9-46 0z" fill="#5a74b5"/>
    <rect x="314" y="742" width="9" height="29" rx="4" fill="#e6d1aa"/><path d="M298 744c8-20 36-21 47 0-15 9-32 9-47 0z" fill="#5f79bb"/>
  </g>
</svg>
