<svg xmlns="http://www.w3.org/2000/svg" viewBox="0 0 1400 700" preserveAspectRatio="none">
  <path fill="#0b2419" opacity="0.55" d="M0 700 L0 480 L55 390 L110 480 L175 345 L240 515 L315 360 L390 575 L470 360 L550 620 L630 390 L710 600 L790 365 L870 555 L950 345 L1030 520 L1110 335 L1190 490 L1265 370 L1330 480 L1400 455 L1400 700 Z"/>
  <path fill="#071810" opacity="0.75" d="M0 700 L0 525 L45 445 L90 525 L145 395 L200 545 L260 420 L320 590 L385 405 L450 625 L520 430 L590 650 L660 435 L730 620 L800 410 L870 570 L940 390 L1010 535 L1080 380 L1150 505 L1220 395 L1290 500 L1350 440 L1400 515 L1400 700 Z"/>
</svg>
