<svg xmlns="http://www.w3.org/2000/svg" viewBox="0 0 1400 760" preserveAspectRatio="none">
  <rect width="1400" height="760" fill="none"/>
  <polygon fill="#06130d" opacity="0.94" points="0,760 0,430 45,310 90,430 145,255 200,470 260,230 325,540 395,270 465,640 535,290 610,720 690,310 765,660 840,260 915,600 990,245 1065,550 1140,240 1210,515 1280,300 1345,500 1400,455 1400,760"/>
  <polygon fill="#0a2016" opacity="0.78" points="0,760 0,500 36,410 72,500 120,350 168,520 220,315 272,575 330,350 388,650 445,375 505,720 568,395 630,680 695,345 760,625 825,320 890,575 955,305 1020,545 1085,300 1150,530 1215,325 1280,515 1340,390 1400,495 1400,760"/>
</svg>
