<svg xmlns="http://www.w3.org/2000/svg" viewBox="0 0 1400 760" preserveAspectRatio="none">
  <rect width="1400" height="760" fill="none"/>
  <polygon fill="#0f3f2b" opacity="0.98" points="0,760 0,450 42,320 84,450 138,260 192,492 252,235 316,565 386,285 456,665 528,300 604,732 682,320 760,682 836,270 912,620 988,250 1064,570 1138,248 1212,532 1280,320 1348,512 1400,462 1400,760"/>
  <polygon fill="#06160f" opacity="0.96" points="0,760 0,525 34,430 68,525 116,370 164,545 216,332 268,600 326,370 384,680 444,395 504,735 566,415 628,705 694,365 760,648 824,338 888,598 954,322 1020,565 1086,315 1152,548 1218,342 1284,532 1344,408 1400,512 1400,760"/>
</svg>
