<?xml version="1.0" encoding="UTF-8"?>
<svg xmlns="http://www.w3.org/2000/svg"
     viewBox="0 0 1400 700"
     preserveAspectRatio="none">

  <g fill="rgba(0,0,0,0.88)">
    <path d="
      M0 700
      L0 430
      L35 345
      L70 430
      L110 285
      L150 450
      L195 255
      L240 505
      L290 295
      L345 565
      L400 305
      L455 605
      L510 330
      L565 645
      L620 345
      L675 610
      L730 315
      L785 575
      L840 295
      L895 525
      L950 275
      L1005 485
      L1060 265
      L1115 455
      L1170 285
      L1225 435
      L1270 335
      L1310 420
      L1350 360
      L1400 430
      L1400 700
      Z" />

    <path d="
      M0 700
      L0 448
      L28 380
      L55 448
      L92 320
      L125 468
      L165 300
      L205 500
      L252 320
      L300 548
      L350 338
      L402 586
      L452 360
      L505 620
      L558 372
      L612 592
      L664 350
      L716 564
      L768 330
      L820 520
      L872 310
      L924 488
      L976 298
      L1028 465
      L1080 290
      L1132 448
      L1184 300
      L1236 438
      L1278 360
      L1320 432
      L1360 388
      L1400 448
      L1400 700
      Z"
      opacity="0.92" />
  </g>

</svg>
