<svg xmlns="http://www.w3.org/2000/svg" viewBox="0 0 1600 760" preserveAspectRatio="none">
  <rect width="1600" height="760" fill="none"/>
  <g>
    <rect x="76" y="680" width="14" height="80" fill="#071b13"/><polygon fill="#1f6849" points="83,470 20,680 146,680"/>
    <rect x="222" y="660" width="16" height="100" fill="#071c13"/><polygon fill="#2307d1" opacity="0" points="230,418 140,660 320,660"/><polygon fill="#216d4c" points="230,418 140,660 320,660"/>
    <rect x="382" y="688" width="14" height="72" fill="#071a12"/><polygon fill="#1d6044" points="389,505 328,688 450,688"/>
    <rect x="540" y="656" width="16" height="104" fill="#071c13"/><polygon fill="#206a4a" points="548,405 456,656 640,656"/>
    <rect x="718" y="674" width="14" height="86" fill="#071b13"/><polygon fill="#1f6748" points="725,455 658,674 792,674"/>
    <rect x="878" y="664" width="16" height="96" fill="#071c13"/><polygon fill="#216c4b" points="886,425 798,664 974,664"/>
    <rect x="1058" y="682" width="14" height="78" fill="#071a12"/><polygon fill="#1d6044" points="1065,488 1000,682 1130,682"/>
    <rect x="1228" y="652" width="18" height="108" fill="#071c13"/><polygon fill="#236f4e" points="1237,388 1138,652 1336,652"/>
    <rect x="1410" y="672" width="16" height="88" fill="#071b13"/><polygon fill="#1f6849" points="1418,452 1338,672 1498,672"/>
  </g>
</svg>
